<?xml version="1.0" standalone="no"?>
<!DOCTYPE svg PUBLIC "-//W3C//DTD SVG 20010904//EN"
 "http://www.w3.org/TR/2001/REC-SVG-20010904/DTD/svg10.dtd">
<svg version="1.0" xmlns="http://www.w3.org/2000/svg"
 width="1141.000000pt" height="1141.000000pt" viewBox="0 0 1141.000000 1141.000000"
 preserveAspectRatio="xMidYMid meet">
<metadata>
Created by potrace 1.14, written by Peter Selinger 2001-2017
</metadata>
<g transform="translate(0.000000,1141.000000) scale(0.100000,-0.100000)"
fill="#000000" stroke="none">
<path d="M7328 10755 c-1 -2 -55 -6 -118 -10 -63 -4 -122 -9 -132 -10 -10 -2
-53 -7 -96 -10 -42 -3 -88 -8 -102 -10 -40 -6 -101 -14 -150 -20 -372 -47
-776 -152 -1005 -259 -126 -60 -199 -109 -278 -187 -82 -82 -111 -140 -112
-224 0 -77 40 -163 121 -255 31 -36 68 -79 83 -95 14 -17 50 -59 80 -95 30
-36 60 -69 65 -75 6 -5 36 -39 66 -75 30 -36 57 -67 60 -70 20 -20 304 -355
334 -394 50 -66 67 -110 71 -178 8 -148 -94 -296 -275 -401 -102 -59 -365
-148 -523 -178 -152 -28 -219 -34 -407 -34 -96 0 -201 4 -233 7 -210 26 -369
70 -476 133 -82 48 -173 139 -201 200 -75 164 18 361 240 509 87 59 243 135
365 181 146 54 442 164 500 185 28 11 85 32 127 47 43 15 78 30 78 33 0 3 -13
21 -29 40 -161 193 -207 253 -233 305 -38 74 -58 181 -46 250 12 70 60 164
113 223 50 56 53 55 -69 20 -38 -11 -76 -21 -85 -23 -9 -2 -36 -9 -61 -16 -25
-7 -49 -13 -55 -15 -5 -1 -260 -70 -565 -153 -305 -84 -562 -154 -570 -156 -9
-2 -92 -24 -185 -50 -186 -52 -302 -84 -325 -90 -193 -49 -755 -249 -950 -338
-30 -13 -89 -39 -130 -57 -153 -67 -521 -259 -640 -335 -19 -12 -80 -50 -135
-85 -265 -167 -494 -349 -710 -565 -174 -174 -193 -196 -294 -330 -187 -250
-311 -520 -358 -778 -24 -134 -21 -342 7 -477 70 -343 253 -634 560 -891 36
-29 67 -56 70 -60 3 -3 43 -32 90 -66 238 -170 577 -337 915 -451 109 -37 326
-100 368 -107 17 -3 33 -8 37 -10 8 -5 258 -61 310 -70 19 -3 46 -8 60 -10 59
-12 82 -16 210 -35 142 -20 209 -29 275 -35 22 -3 65 -7 95 -10 361 -37 1024
-41 1370 -10 19 2 71 6 115 10 44 3 96 8 115 10 19 2 62 7 95 10 33 4 71 8 85
10 14 2 50 7 80 10 30 3 66 7 80 10 14 2 45 7 70 10 25 3 88 12 140 21 52 8
107 17 123 20 57 9 85 14 187 35 58 11 114 23 125 25 11 2 45 9 75 16 30 6 57
12 60 13 89 19 443 113 535 141 44 14 87 27 95 29 87 20 590 203 716 260 16 8
66 30 110 48 475 205 1009 535 1339 827 110 98 324 324 392 414 160 214 273
468 298 672 3 21 8 55 11 74 9 57 6 229 -5 305 -41 280 -209 589 -443 810
-126 121 -201 175 -653 475 -831 552 -831 552 -878 607 -27 31 -38 91 -26 135
23 87 164 169 336 193 21 3 43 8 50 10 70 23 426 24 573 0 247 -38 429 -104
527 -190 80 -70 99 -144 59 -227 -25 -51 -81 -86 -338 -215 l-237 -118 252
-164 c379 -246 438 -290 608 -460 154 -154 246 -275 329 -434 68 -130 127
-294 145 -401 3 -17 8 -38 10 -46 17 -66 24 -298 11 -409 l-8 -65 47 45 c70
66 164 157 326 313 294 284 556 536 624 601 178 169 459 440 555 536 148 148
185 224 183 379 -2 140 -59 254 -198 395 -122 124 -212 191 -397 298 -344 198
-878 380 -1413 483 -11 2 -31 6 -45 9 -14 2 -38 7 -55 10 -16 3 -41 7 -55 10
-14 3 -41 7 -60 10 -19 3 -46 7 -60 10 -13 2 -42 7 -65 10 -22 3 -51 8 -65 10
-33 6 -83 13 -145 20 -27 3 -61 8 -75 10 -14 2 -56 7 -95 10 -38 4 -81 8 -95
10 -14 2 -68 7 -120 10 -52 3 -120 9 -150 12 -62 5 -916 14 -922 8z"/>
<path d="M11295 8113 c-94 -90 -207 -198 -570 -548 -35 -33 -149 -143 -255
-245 -105 -102 -217 -209 -248 -238 -32 -30 -91 -86 -132 -125 -68 -64 -332
-316 -514 -490 -39 -38 -152 -146 -251 -242 -174 -167 -276 -258 -380 -340
-27 -22 -52 -42 -55 -45 -3 -3 -54 -42 -115 -86 -378 -277 -848 -542 -1285
-726 -52 -22 -109 -46 -126 -54 -17 -7 -73 -29 -125 -49 -52 -19 -103 -40
-114 -45 -11 -5 -114 -41 -230 -80 -181 -61 -284 -93 -570 -175 -152 -44 -623
-149 -805 -179 -19 -3 -44 -8 -55 -10 -11 -2 -56 -9 -100 -16 -44 -7 -89 -14
-100 -16 -22 -4 -81 -12 -140 -20 -22 -2 -58 -7 -80 -10 -81 -11 -91 -13 -150
-18 -33 -4 -80 -9 -105 -11 -54 -7 -118 -12 -225 -20 -44 -3 -98 -8 -120 -10
-234 -25 -1015 -25 -1255 0 -19 2 -75 7 -125 11 -139 11 -248 22 -287 29 -13
2 -43 6 -68 9 -45 5 -212 31 -328 51 -25 4 -142 27 -212 41 -217 45 -520 129
-755 212 -427 150 -787 336 -1105 571 -82 60 -244 196 -274 230 -11 11 -22 21
-26 21 -4 0 -6 -651 -5 -1447 1 -1338 2 -1455 19 -1543 99 -534 500 -989 1166
-1321 114 -56 410 -180 488 -204 l22 -6 0 521 c0 463 2 521 15 516 9 -3 64
-19 123 -36 59 -17 113 -34 120 -38 7 -4 31 -52 53 -106 38 -96 162 -352 179
-369 4 -5 21 11 38 35 17 24 36 48 42 55 5 7 41 67 80 135 38 68 73 128 77
135 6 9 21 10 58 2 28 -5 61 -12 75 -13 30 -5 94 -15 131 -22 l26 -5 -3 -292
c-1 -161 -3 -395 -5 -522 l-2 -229 25 -7 c14 -3 51 -9 84 -13 32 -3 70 -8 84
-11 14 -2 50 -6 80 -9 103 -9 195 -17 235 -21 238 -25 893 -25 1190 -1 22 2
85 7 140 11 55 4 101 8 102 9 3 3 12 103 18 201 5 84 9 146 20 285 3 30 7 89
10 130 3 41 8 98 10 125 2 28 7 106 10 175 4 69 11 129 15 134 5 5 24 10 42
11 19 1 47 5 63 8 17 4 54 9 84 12 30 4 62 8 71 10 9 2 41 6 71 10 30 3 61 8
70 11 9 2 52 11 95 19 118 21 134 25 194 40 54 14 84 20 146 31 31 6 31 6 28
-32 -7 -76 -13 -160 -13 -195 -1 -29 -6 -38 -23 -43 -29 -8 -245 -56 -278 -62
-14 -2 -59 -11 -100 -19 -41 -7 -95 -17 -120 -20 -25 -4 -48 -10 -52 -13 -3
-4 -9 -42 -13 -84 l-7 -77 34 5 c18 2 49 7 68 10 19 4 49 8 65 10 17 3 41 7
55 10 14 3 39 8 55 11 17 3 71 14 120 25 50 10 98 21 108 23 17 4 18 -2 11
-88 -4 -51 -8 -102 -8 -114 -1 -24 -5 -25 -176 -58 -14 -3 -36 -7 -50 -10 -14
-3 -41 -8 -60 -11 -19 -2 -57 -9 -85 -14 -27 -5 -72 -12 -100 -16 -27 -3 -51
-7 -51 -8 -1 0 -5 -39 -8 -85 l-7 -84 58 7 c32 3 69 8 83 11 14 2 41 7 60 9
63 9 249 45 367 71 18 4 21 1 18 -16 -8 -39 -16 -219 -10 -219 3 0 58 12 123
26 64 14 128 28 142 30 76 14 395 97 535 139 466 138 904 312 1280 506 l150
77 -1 124 c-1 68 -5 197 -8 288 -3 91 -8 241 -12 334 -3 94 -7 173 -10 178 -3
4 -44 -17 -92 -46 -48 -29 -94 -55 -102 -59 -8 -5 -26 -14 -40 -22 -13 -8 -26
-13 -27 -11 -1 1 -5 68 -9 147 l-6 145 168 101 c224 134 282 169 446 274 77
49 142 89 146 89 4 0 8 -67 10 -150 l2 -149 -106 -68 c-113 -72 -158 -108
-150 -121 4 -7 9 -121 22 -522 5 -140 12 -346 13 -378 1 -12 82 34 89 51 2 4
8 7 13 7 20 0 366 250 464 335 17 14 46 40 65 57 19 16 118 109 219 206 210
203 270 260 474 455 193 184 257 247 258 255 2 16 9 50 33 156 14 61 50 226
80 366 31 140 80 367 111 505 31 137 58 261 60 275 19 102 35 134 94 194 33
34 81 85 107 114 26 28 51 52 55 52 4 0 11 -10 15 -22 4 -13 21 -54 39 -93 18
-38 69 -159 114 -267 93 -227 180 -418 192 -418 4 0 30 21 57 48 28 26 130
124 228 217 377 360 548 537 577 595 60 125 57 25 55 1777 l-3 1602 -110 -106z"/>
<path d="M10009 4259 c0 -8 -2 -21 -4 -29 -2 -8 -6 -27 -9 -41 -3 -14 -19 -90
-36 -170 -17 -79 -33 -157 -36 -174 -5 -32 -14 -40 157 140 l29 31 -46 124
c-48 130 -54 143 -55 119z"/>
<path d="M10113 3762 c-29 -31 -99 -106 -157 -166 -105 -108 -105 -109 -122
-183 -9 -41 -15 -76 -13 -78 7 -6 399 373 399 386 0 13 -43 99 -49 99 -4 0
-29 -26 -58 -58z"/>
<path d="M1950 1425 c-2 -146 1 -529 4 -533 4 -3 86 -27 126 -36 8 -2 33 -9
55 -14 22 -6 51 -13 65 -15 14 -3 43 -10 65 -15 45 -12 82 -20 140 -28 l40 -6
0 291 c0 270 -1 289 -16 273 -9 -9 -51 -62 -93 -117 -42 -55 -80 -104 -84
-110 -4 -5 -20 -27 -34 -48 l-26 -39 -45 89 c-51 98 -80 152 -149 274 l-47 84
-1 -50z"/>
</g>
</svg>
